<svg xmlns="http://www.w3.org/2000/svg" viewBox="0 0 1122.52 793.70667" height="793.707" width="1122.52"><defs><clipPath id="a"><path d="M0 595.28h841.89V0H0v595.28z"/></clipPath></defs><g clip-path="url(#a)" transform="matrix(1.333 0 0 -1.333 0 793.707)"><path d="M137.383 294.087c-.953 0-1.59.636-1.59 1.59v96.853c0 .634-.316.953-.952.953h-31.118c-.953 0-1.59.633-1.59 1.586v5.4c0 .953.637 1.586 1.59 1.586h73.197c.952 0 1.585-.633 1.585-1.586v-5.4c0-.954-.633-1.587-1.586-1.587h-31.123c-.633 0-.952-.32-.952-.953v-96.854c0-.953-.634-1.59-1.586-1.59h-5.877zM256.78 352.836c0 9.367-6.192 15.085-18.26 15.085h-23.5c-.635 0-.95-.32-.95-.952v-28.264c0-.636.315-.953.95-.953h23.5c12.068 0 18.26 5.72 18.26 15.086m2.064-58.75c-.953 0-1.43.318-2.064 1.43l-18.26 34.138h-23.5c-.635 0-.95-.317-.95-.953v-33.024c0-.953-.638-1.59-1.59-1.59h-5.398c-.953 0-1.59.637-1.59 1.59v78.91c0 .954.637 1.59 1.59 1.59h31.755c16.832 0 26.516-9.367 26.516-23.34 0-11.43-6.35-19.53-17.624-22.23l18.734-34.77c.636-.954.158-1.75-.795-1.75h-6.826zM305.354 294.087c-.953 0-1.586.636-1.586 1.59v78.91c0 .953.633 1.59 1.586 1.59h5.4c.954 0 1.587-.637 1.587-1.59v-78.91c0-.954-.632-1.59-1.585-1.59h-5.4zM405.38 352.358c0 9.845-6.67 15.563-19.213 15.563h-22.862c-.636 0-.953-.32-.953-.952v-29.216c0-.637.317-.953.953-.953h22.862c12.543 0 19.213 5.716 19.213 15.558m-50.015-58.27c-.953 0-1.59.636-1.59 1.588v78.91c0 .954.637 1.59 1.59 1.59h30.96c17.466 0 27.786-9.528 27.786-23.818 0-14.448-10.32-23.815-27.784-23.815h-23.02c-.637 0-.954-.317-.954-.953v-31.914c0-.952-.636-1.59-1.59-1.59h-5.397zM443.476 294.087c-.953 0-1.586.636-1.586 1.59v78.91c0 .953.633 1.59 1.586 1.59h5.397c.953 0 1.59-.637 1.59-1.59v-71.29c0-.637.316-.954.953-.954h41.916c.953 0 1.59-.636 1.59-1.586v-5.08c0-.954-.637-1.59-1.59-1.59h-49.856zM524.128 294.087c-.953 0-1.586.636-1.586 1.59v78.91c0 .953.633 1.59 1.586 1.59h51.92c.953 0 1.59-.637 1.59-1.59v-5.08c0-.954-.637-1.587-1.59-1.587h-43.98c-.637 0-.953-.32-.953-.953v-26.2c0-.635.316-.952.953-.952h37.472c.953 0 1.586-.636 1.586-1.59v-5.08c0-.953-.633-1.586-1.586-1.586h-37.472c-.637 0-.953-.317-.953-.954v-27.31c0-.636.316-.953.953-.953h43.98c.953 0 1.59-.636 1.59-1.586v-5.08c0-.954-.637-1.59-1.59-1.59h-51.92z" fill="#5e5f65"/><path d="M638.124 294.087c-.953 0-1.586.636-1.586 1.59v96.853c0 .634-.32.953-.953.953h-31.122c-.953 0-1.59.633-1.59 1.586v5.4c0 .953.637 1.586 1.59 1.586h73.197c.953 0 1.59-.633 1.59-1.586v-5.4c0-.954-.637-1.587-1.59-1.587h-31.122c-.633 0-.953-.32-.953-.953v-96.854c0-.953-.633-1.59-1.585-1.59h-5.876zM700.487 348.91c-.316.946 0 1.575.946 1.893l3.943 1.104c.945.314 1.42 0 1.892-.947 1.893-4.418 5.993-8.36 12.775-8.36 7.57 0 12.458 5.046 12.458 11.986s-5.045 12.143-12.773 12.143h-2.84c-.946 0-1.576.632-1.576 1.58v3.624c0 .946.63 1.578 1.578 1.578h2.366c7.097 0 11.828 4.258 11.828 11.04 0 6.308-4.258 10.726-11.512 10.726-6.782 0-9.936-3.472-11.513-7.415-.316-.946-.79-1.418-1.736-1.26l-3.626.945c-.946.157-1.42.79-1.26 1.736 1.576 6.622 7.57 12.772 18.293 12.772 11.513 0 18.61-7.254 18.61-17.19 0-6.78-3.786-11.355-8.2-14.194v-.157c4.257-1.736 9.62-6.94 9.62-15.772 0-11.037-7.886-18.923-19.556-18.923-10.723 0-17.506 5.518-19.713 13.09" fill="#81b14d"/><path d="M154.375 200.03c-.212 0-.32.143-.39.355l-5.167 18.067h-.073l-5.132-18.067c-.07-.212-.213-.355-.425-.355h-1.96c-.216 0-.36.143-.394.355l-5.842 23.52c-.073.212.035.355.285.355h2.35c.25 0 .394-.105.43-.355l4.31-17.994h.072l5.024 17.995c.07.212.212.355.424.355h1.818c.25 0 .36-.143.428-.355l5.132-17.994h.07l4.206 17.995c.073.25.216.355.463.355h2.315c.25 0 .324-.143.286-.355l-5.842-23.52c-.035-.212-.216-.355-.43-.355h-1.96zM178.125 210.044c.143 0 .212.07.212.212 0 .784-.07 1.39-.247 1.926-.57 1.71-1.995 2.674-3.92 2.674-1.926 0-3.35-.965-3.92-2.674-.178-.536-.248-1.142-.248-1.926 0-.142.07-.212.212-.212h7.91zm-10.62-5.773c-.355 1.105-.57 2.35-.57 4.312 0 1.96.18 3.28.536 4.314.962 2.956 3.458 4.596 6.7 4.596 3.28 0 5.738-1.675 6.7-4.596.354-1.108.535-2.28.535-4.885 0-.212-.143-.354-.394-.354h-10.796c-.142 0-.212-.07-.212-.213 0-.926.104-1.497.282-2.068.68-1.96 2.21-2.956 4.314-2.956 2.03 0 3.457.817 4.384 1.886.177.178.355.216.532.073l1.463-1.32c.177-.143.177-.32.034-.498-1.353-1.713-3.668-2.925-6.663-2.925-3.457 0-5.915 1.675-6.84 4.634M199.802 205.02c.286.89.393 1.995.393 3.562 0 1.532-.107 2.64-.393 3.565-.57 1.675-1.852 2.566-3.743 2.566-1.888 0-3.208-.856-3.78-2.566-.28-.856-.39-1.852-.39-3.565 0-1.71.11-2.744.39-3.562.572-1.71 1.892-2.6 3.78-2.6 1.89 0 3.17.925 3.742 2.6m-10.546-4.99c-.216 0-.36.143-.36.356v23.52c0 .212.144.354.36.354h2.28c.213 0 .355-.142.355-.355v-8.767h.036c.822 1.354 2.28 2.354 4.847 2.354 2.956 0 5.024-1.39 5.88-4.098.464-1.355.606-2.71.606-4.812 0-2.138-.143-3.492-.606-4.847-.857-2.705-2.925-4.098-5.88-4.098-2.567 0-4.026 1.034-4.848 2.39h-.035v-1.64c0-.214-.14-.356-.354-.356h-2.28zM225.442 202.987h4.453c2.92 0 4.74.964 5.526 3.315.32.89.5 2.068.5 5.846 0 3.777-.18 4.95-.5 5.842-.786 2.354-2.604 3.315-5.525 3.315h-4.453c-.143 0-.212-.074-.212-.213v-17.89c0-.142.07-.215.212-.215m-3.384 20.918c0 .213.142.356.355.356h8.16c4.1 0 6.805-1.744 7.912-5.166.428-1.316.64-2.636.64-6.946 0-4.314-.212-5.63-.64-6.95-1.107-3.423-3.813-5.167-7.91-5.167h-8.162c-.213 0-.355.144-.355.356v23.52zM257.025 210.044c.143 0 .212.07.212.212 0 .784-.07 1.39-.247 1.926-.57 1.71-1.995 2.674-3.92 2.674-1.926 0-3.35-.965-3.92-2.674-.178-.536-.248-1.142-.248-1.926 0-.142.07-.212.212-.212h7.91zm-10.62-5.773c-.355 1.105-.57 2.35-.57 4.312 0 1.96.18 3.28.536 4.314.962 2.956 3.458 4.596 6.7 4.596 3.28 0 5.738-1.675 6.7-4.596.354-1.108.535-2.28.535-4.885 0-.212-.143-.354-.394-.354h-10.796c-.142 0-.212-.07-.212-.213 0-.926.104-1.497.282-2.068.68-1.96 2.21-2.956 4.314-2.956 2.03 0 3.457.817 4.384 1.886.177.178.355.216.532.073l1.463-1.32c.177-.143.177-.32.034-.498-1.353-1.713-3.668-2.925-6.663-2.925-3.457 0-5.915 1.675-6.84 4.634M272.36 200.03c-.248 0-.356.143-.43.355l-6.127 16.358c-.07.212.035.355.285.355h2.458c.25 0 .356-.105.464-.355l4.418-12.26h.073l4.31 12.26c.075.25.214.355.43.355h2.423c.247 0 .355-.143.286-.355l-6.095-16.358c-.073-.212-.215-.355-.463-.355h-2.033zM297.49 210.044c.143 0 .212.07.212.212 0 .784-.07 1.39-.247 1.926-.57 1.71-1.995 2.674-3.92 2.674-1.926 0-3.35-.965-3.92-2.674-.178-.536-.248-1.142-.248-1.926 0-.142.07-.212.212-.212h7.91zm-10.62-5.773c-.355 1.105-.57 2.35-.57 4.312 0 1.96.18 3.28.536 4.314.96 2.956 3.457 4.596 6.7 4.596 3.28 0 5.737-1.675 6.698-4.596.355-1.108.536-2.28.536-4.885 0-.212-.143-.354-.394-.354H289.58c-.143 0-.213-.07-.213-.213 0-.926.104-1.497.282-2.068.678-1.96 2.21-2.956 4.313-2.956 2.03 0 3.457.817 4.384 1.886.177.178.355.216.532.073l1.462-1.32c.177-.143.177-.32.034-.498-1.354-1.713-3.67-2.925-6.664-2.925-3.457 0-5.915 1.675-6.84 4.634M312.36 199.853c-2.993 0-4.167 1.424-4.167 4.488v19.565c0 .212.143.355.355.355h2.28c.217 0 .356-.143.356-.355v-19.383c0-1.427.536-1.89 1.713-1.89h.676c.216 0 .355-.143.355-.356v-2.068c0-.212-.14-.355-.355-.355h-1.212zM330.933 205.09c.285.925.39 1.85.39 3.49 0 1.64-.105 2.532-.39 3.46-.57 1.708-1.96 2.673-3.85 2.673-1.888 0-3.277-.965-3.848-2.674-.286-.928-.39-1.82-.39-3.46s.104-2.565.39-3.49c.57-1.71 1.96-2.672 3.847-2.672 1.89 0 3.28.96 3.85 2.67m-10.584-.852c-.39 1.173-.57 2.35-.57 4.345 0 1.96.18 3.138.57 4.315.927 2.92 3.423 4.596 6.734 4.596 3.315 0 5.81-1.674 6.737-4.595.39-1.177.57-2.354.57-4.314 0-1.994-.18-3.17-.57-4.344-.927-2.886-3.423-4.6-6.738-4.6-3.31 0-5.807 1.714-6.734 4.6M352.788 205.02c.286.89.393 1.995.393 3.562 0 1.532-.106 2.64-.392 3.565-.57 1.675-1.852 2.566-3.743 2.566-1.887 0-3.207-.856-3.778-2.566-.282-.856-.39-1.852-.39-3.565 0-1.71.108-2.744.39-3.562.57-1.71 1.89-2.6 3.778-2.6 1.89 0 3.172.925 3.743 2.6m-10.546-11.403c-.216 0-.36.143-.36.355v22.77c0 .214.144.356.36.356h2.28c.213 0 .355-.142.355-.355v-1.605h.035c.822 1.354 2.28 2.354 4.847 2.354 2.955 0 5.023-1.39 5.88-4.098.463-1.355.605-2.71.605-4.812 0-2.138-.142-3.492-.605-4.847-.857-2.705-2.925-4.098-5.88-4.098-2.567 0-4.026 1.034-4.848 2.39h-.035v-8.055c0-.212-.142-.355-.355-.355h-2.28zM385.548 200.03c-.216 0-.36.143-.36.355v9.98c0 2.743-1.245 4.348-3.81 4.348-2.282 0-3.922-1.64-3.922-4.172v-10.155c0-.212-.14-.355-.355-.355h-2.28c-.212 0-.354.143-.354.355v9.98c0 2.743-1.247 4.348-3.813 4.348-2.32 0-3.92-1.64-3.92-4.172v-10.155c0-.212-.143-.355-.356-.355h-2.28c-.216 0-.36.143-.36.355v16.358c0 .212.144.355.36.355h2.28c.213 0 .356-.143.356-.355v-1.567h.034c.822 1.316 2.458 2.315 4.777 2.315 2.316 0 4.025-.96 4.986-2.673h.04c1.172 1.64 2.92 2.674 5.52 2.674 3.956 0 6.094-2.53 6.094-6.412v-10.693c0-.212-.143-.355-.355-.355h-2.282zM406.696 210.044c.143 0 .212.07.212.212 0 .784-.07 1.39-.247 1.926-.57 1.71-1.994 2.674-3.92 2.674-1.925 0-3.35-.965-3.92-2.674-.177-.536-.247-1.142-.247-1.926 0-.142.07-.212.212-.212h7.91zm-10.62-5.773c-.355 1.105-.57 2.35-.57 4.312 0 1.96.18 3.28.536 4.314.96 2.956 3.457 4.596 6.7 4.596 3.28 0 5.737-1.675 6.698-4.596.355-1.108.536-2.28.536-4.885 0-.212-.143-.354-.394-.354h-10.797c-.142 0-.212-.07-.212-.213 0-.926.104-1.497.282-2.068.68-1.96 2.21-2.956 4.314-2.956 2.03 0 3.456.817 4.383 1.886.177.178.355.216.532.073l1.463-1.32c.177-.143.177-.32.034-.498-1.354-1.713-3.67-2.925-6.664-2.925-3.457 0-5.915 1.675-6.84 4.634M428.55 200.03c-.21 0-.354.143-.354.355v9.98c0 2.743-1.247 4.348-3.813 4.348-2.32 0-3.92-1.64-3.92-4.172v-10.155c0-.212-.143-.355-.355-.355h-2.28c-.217 0-.36.143-.36.355v16.358c0 .212.143.355.36.355h2.28c.212 0 .355-.143.355-.355v-1.567h.035c.82 1.316 2.458 2.315 4.777 2.315 3.704 0 5.912-2.53 5.912-6.412v-10.693c0-.212-.14-.355-.355-.355h-2.28zM444.49 199.853c-3.314 0-4.595 1.497-4.595 4.847v9.763c0 .142-.073.212-.216.212h-1.425c-.216 0-.358.143-.358.36v1.708c0 .212.142.355.358.355h1.424c.142 0 .215.073.215.216v4.808c0 .216.143.36.355.36h2.28c.213 0 .356-.144.356-.36v-4.808c0-.143.073-.216.216-.216h2.705c.216 0 .36-.143.36-.355v-1.71c0-.215-.144-.358-.36-.358h-2.705c-.143 0-.216-.07-.216-.212v-9.66c0-1.708.64-2.172 2.176-2.172h.745c.216 0 .36-.14.36-.354v-2.068c0-.212-.144-.355-.36-.355h-1.316zM463.922 212.147c0 4.025.178 5.414.64 6.803 1.212 3.816 4.1 5.704 8.054 5.704 3.6 0 6.38-1.783 7.768-4.882.073-.177.038-.355-.143-.463l-2.137-1.035c-.212-.108-.425 0-.498.177-.96 1.89-2.458 3.242-4.99 3.242-2.635 0-4.24-1.28-5.023-3.562-.32-1-.463-2.172-.463-5.985s.14-4.99.462-5.99c.783-2.28 2.388-3.56 5.024-3.56 2.53 0 4.028 1.354 4.99 3.24.072.18.285.287.497.18l2.138-1.032c.182-.108.217-.286.144-.463-1.39-3.102-4.168-4.885-7.768-4.885-3.955 0-6.842 1.89-8.053 5.703-.463 1.39-.64 2.78-.64 6.807M497.682 205.09c.286.925.39 1.85.39 3.49 0 1.64-.104 2.532-.39 3.46-.57 1.708-1.96 2.673-3.85 2.673-1.888 0-3.277-.965-3.848-2.674-.286-.928-.39-1.82-.39-3.46s.104-2.565.39-3.49c.57-1.71 1.96-2.672 3.847-2.672 1.892 0 3.28.96 3.852 2.67m-10.585-.852c-.39 1.173-.57 2.35-.57 4.345 0 1.96.18 3.138.57 4.315.927 2.92 3.423 4.596 6.734 4.596 3.316 0 5.812-1.674 6.738-4.595.39-1.177.57-2.354.57-4.314 0-1.994-.18-3.17-.57-4.344-.926-2.886-3.422-4.6-6.737-4.6-3.31 0-5.806 1.714-6.733 4.6M519.714 200.03c-.212 0-.355.143-.355.355v9.98c0 2.743-1.248 4.348-3.814 4.348-2.32 0-3.92-1.64-3.92-4.172v-10.155c0-.212-.143-.355-.355-.355h-2.28c-.216 0-.358.143-.358.355v16.358c0 .212.142.355.358.355h2.28c.213 0 .356-.143.356-.355v-1.567h.035c.822 1.316 2.46 2.315 4.778 2.315 3.704 0 5.912-2.53 5.912-6.412v-10.693c0-.212-.14-.355-.355-.355h-2.28zM529.523 202.203c-.14.143-.14.36 0 .5l1.462 1.568c.143.144.355.144.498 0 1.285-1.103 3.207-1.96 5.275-1.96 2.493 0 3.743 1.07 3.743 2.602 0 1.354-.643 2.103-3.314 2.388l-1.817.178c-3.35.355-5.098 2.03-5.098 4.812 0 3.24 2.318 5.2 6.343 5.2 2.497 0 4.635-.82 6.06-1.89.176-.104.176-.32.068-.497l-1.212-1.532c-.14-.177-.32-.177-.497-.07-1.104.712-2.852 1.39-4.596 1.39-2.138 0-3.242-.964-3.242-2.353 0-1.355.818-2.065 3.35-2.315l1.78-.178c3.456-.32 5.13-2.068 5.13-4.812 0-3.35-2.422-5.595-6.875-5.595-3.315 0-5.665 1.354-7.058 2.566M561.572 200.03c-.216 0-.36.143-.36.355v1.605h-.033c-.893-1.424-2.46-2.353-4.67-2.353-3.74 0-5.913 2.566-5.913 6.45v10.656c0 .212.143.355.356.355h2.28c.213 0 .355-.143.355-.355v-9.94c0-2.783 1.247-4.384 3.778-4.384 2.315 0 3.847 1.635 3.847 4.2v10.123c0 .212.143.355.36.355h2.28c.212 0 .355-.143.355-.355v-16.358c0-.212-.143-.355-.355-.355h-2.28zM576.833 199.853c-2.994 0-4.168 1.424-4.168 4.488v19.565c0 .212.143.355.355.355h2.28c.213 0 .356-.143.356-.355v-19.383c0-1.427.536-1.89 1.713-1.89h.675c.216 0 .355-.143.355-.356v-2.068c0-.212-.14-.355-.355-.355h-1.212zM590.06 199.853c-3.315 0-4.596 1.497-4.596 4.847v9.763c0 .142-.073.212-.216.212h-1.424c-.216 0-.358.143-.358.36v1.708c0 .212.142.355.358.355h1.424c.143 0 .216.073.216.216v4.808c0 .216.14.36.355.36h2.28c.212 0 .355-.144.355-.36v-4.808c0-.143.073-.216.216-.216h2.706c.216 0 .36-.143.36-.355v-1.71c0-.215-.144-.358-.36-.358h-2.705c-.142 0-.215-.07-.215-.212v-9.66c0-1.708.64-2.172 2.176-2.172h.746c.216 0 .36-.14.36-.354v-2.068c0-.212-.144-.355-.36-.355h-1.316zM599.405 200.03c-.216 0-.36.143-.36.355v16.358c0 .212.144.355.36.355h2.28c.213 0 .356-.143.356-.355v-16.358c0-.212-.142-.355-.354-.355h-2.28zm-.073 20.918c-.213 0-.355.143-.355.356v2.6c0 .213.142.356.355.356h2.423c.213 0 .355-.143.355-.355v-2.6c0-.214-.142-.357-.355-.357h-2.423zM621.647 200.03c-.212 0-.355.143-.355.355v9.98c0 2.743-1.247 4.348-3.813 4.348-2.32 0-3.92-1.64-3.92-4.172v-10.155c0-.212-.144-.355-.356-.355h-2.28c-.217 0-.36.143-.36.355v16.358c0 .212.143.355.36.355h2.28c.212 0 .355-.143.355-.355v-1.567h.034c.82 1.316 2.458 2.315 4.777 2.315 3.705 0 5.913-2.53 5.913-6.412v-10.693c0-.212-.14-.355-.355-.355h-2.28zM642.252 205.553c.286.857.393 1.856.393 3.315 0 1.462-.107 2.423-.393 3.314-.602 1.745-1.852 2.532-3.63 2.532-1.857 0-3.03-.892-3.602-2.532-.285-.89-.428-1.925-.428-3.314 0-1.39.143-2.458.428-3.315.57-1.675 1.745-2.566 3.6-2.566 1.78 0 3.03.822 3.632 2.566m-9.975-9.798c-.143.178-.143.32.035.498l1.462 1.463c.177.177.355.177.533 0 1.176-1.07 2.388-1.71 4.028-1.71 2.813 0 4.31 1.46 4.31 4.596v1.995h-.034c-.783-1.424-2.245-2.354-4.738-2.354-2.886 0-4.88 1.463-5.738 4.137-.428 1.28-.57 2.527-.57 4.488 0 1.96.142 3.206.57 4.49.857 2.672 2.852 4.134 5.738 4.134 2.493 0 3.955-.926 4.74-2.354h.033v1.605c0 .213.143.356.356.356h2.28c.217 0 .36-.144.36-.357V200.78c0-4.847-2.64-7.556-7.448-7.556-2.388 0-4.777 1.034-5.915 2.53" fill="#5e5f65"/><path d="M644.165 258.408H136.442c-1.064 0-1.77-.708-1.77-1.77v-4.962c0-1.063.706-1.77 1.77-1.77h507.723c1.063 0 1.773.707 1.773 1.77v4.96c0 1.064-.71 1.772-1.773 1.772" fill="#81b14d"/></g></svg>